<svg width="40" height="40" viewBox="0 0 40 40" fill="none" xmlns="http://www.w3.org/2000/svg">
<path d="M20 3.33325C18.6739 3.33325 17.4021 3.86004 16.4645 4.79772C15.5268 5.7354 15 7.00717 15 8.33325V19.9999C15 21.326 15.5268 22.5978 16.4645 23.5355C17.4021 24.4731 18.6739 24.9999 20 24.9999C21.3261 24.9999 22.5979 24.4731 23.5355 23.5355C24.4732 22.5978 25 21.326 25 19.9999V8.33325C25 7.00717 24.4732 5.7354 23.5355 4.79772C22.5979 3.86004 21.3261 3.33325 20 3.33325Z" stroke="#F55036" stroke-width="1.5" stroke-linecap="round" stroke-linejoin="round"/>
<path d="M31.6663 16.6667V20.0001C31.6663 23.0943 30.4372 26.0617 28.2493 28.2497C26.0613 30.4376 23.0939 31.6667 19.9997 31.6667C16.9055 31.6667 13.938 30.4376 11.7501 28.2497C9.56217 26.0617 8.33301 23.0943 8.33301 20.0001V16.6667" stroke="#F55036" stroke-width="1.5" stroke-linecap="round" stroke-linejoin="round"/>
<path d="M20 31.6667V36.6667" stroke="#F55036" stroke-width="1.5" stroke-linecap="round" stroke-linejoin="round"/>
</svg>
